<svg width="109" height="121" viewBox="0 0 109 121" fill="none" xmlns="http://www.w3.org/2000/svg">
<path d="M106.25 87.0294V33.4703C106.25 32.6996 106.045 31.9427 105.657 31.2774C105.269 30.6121 104.711 30.0623 104.041 29.6844L56.3745 2.80784C55.7258 2.44212 54.9942 2.25 54.25 2.25C53.5058 2.25 52.7742 2.44212 52.1255 2.80784L4.45887 29.6844C3.78872 30.0623 3.23093 30.6121 2.84276 31.2774C2.45459 31.9427 2.25 32.6996 2.25 33.4703V87.0294C2.25 87.8001 2.45459 88.5569 2.84276 89.2222C3.23093 89.8876 3.78872 90.4373 4.45887 90.8152L52.1255 117.692C52.7742 118.058 53.5058 118.25 54.25 118.25C54.9942 118.25 55.7258 118.058 56.3745 117.692L104.041 90.8152C104.711 90.4373 105.269 89.8876 105.657 89.2222C106.045 88.5569 106.25 87.8001 106.25 87.0294Z" stroke="black" stroke-width="4.5" stroke-linecap="round" stroke-linejoin="round"/>
<path d="M80.8031 73.5587V45.3247L28.2495 16.2703" stroke="black" stroke-width="4.5" stroke-linecap="round" stroke-linejoin="round"/>
<path d="M105.652 31.2706L54.7635 60.2501L2.84961 31.2651" stroke="black" stroke-width="4.5" stroke-linecap="round" stroke-linejoin="round"/>
<path d="M54.764 60.2502L54.2554 118.25" stroke="black" stroke-width="4.5" stroke-linecap="round" stroke-linejoin="round"/>
</svg>
