<svg width="141" height="106" viewBox="0 0 141 106" fill="none" xmlns="http://www.w3.org/2000/svg">
<path d="M70.112 7.01123C61.3296 7.01123 52.7445 9.61551 45.4422 14.4947C38.1399 19.374 32.4485 26.309 29.0876 34.4229C25.7268 42.5367 24.8474 51.465 26.5608 60.0786C28.2741 68.6922 32.5032 76.6043 38.7133 82.8144C44.9234 89.0245 52.8355 93.2536 61.4491 94.967C70.0628 96.6803 78.991 95.801 87.1049 92.4401C95.2187 89.0792 102.154 83.3878 107.033 76.0855C111.912 68.7832 114.517 60.1981 114.517 51.4157C114.504 39.6429 109.821 28.356 101.496 20.0313C93.1718 11.7067 81.8848 7.02422 70.112 7.01123ZM70.112 91.146C62.2541 91.146 54.5727 88.8159 48.039 84.4503C41.5054 80.0846 36.4131 73.8796 33.406 66.6199C30.3989 59.3601 29.6121 51.3716 31.1451 43.6647C32.6781 35.9578 36.4621 28.8785 42.0184 23.3221C47.5748 17.7657 54.6541 13.9818 62.361 12.4488C70.068 10.9158 78.0564 11.7026 85.3162 14.7097C92.5759 17.7168 98.781 22.8091 103.147 29.3427C107.512 35.8763 109.842 43.5578 109.842 51.4157C109.831 61.9492 105.641 72.048 98.1926 79.4963C90.7443 86.9447 80.6456 91.1343 70.112 91.146Z" fill="black"/>
<path d="M25.7079 25.7079V2.33708H21.0337V23.3708H18.6966V2.33708H14.0225V23.3708H11.6854V2.33708H7.01124V23.3708H4.67416V2.33708H0V37.3932C0.00176858 38.8429 0.451935 40.2565 1.28877 41.4402C2.1256 42.6239 3.30812 43.5197 4.67416 44.0048V98.1573C4.67416 100.017 5.41284 101.8 6.7277 103.115C8.04256 104.43 9.8259 105.169 11.6854 105.169H14.0225C15.882 105.169 17.6653 104.43 18.9802 103.115C20.295 101.8 21.0337 100.017 21.0337 98.1573V44.0048C22.3997 43.5197 23.5823 42.6239 24.4191 41.4402C25.2559 40.2565 25.7061 38.8429 25.7079 37.3932V25.7079ZM21.0337 37.3932C21.0337 38.0131 20.7875 38.6075 20.3492 39.0458C19.9109 39.4841 19.3165 39.7303 18.6966 39.7303C18.0768 39.7303 17.4824 39.9766 17.0441 40.4148C16.6058 40.8531 16.3596 41.4476 16.3596 42.0674V98.1573C16.3596 98.7771 16.1133 99.3716 15.675 99.8099C15.2367 100.248 14.6423 100.494 14.0225 100.494H11.6854C11.0656 100.494 10.4711 100.248 10.0328 99.8099C9.59454 99.3716 9.34832 98.7771 9.34832 98.1573V42.0674C9.34832 41.4476 9.10209 40.8531 8.6638 40.4148C8.22551 39.9766 7.63107 39.7303 7.01124 39.7303C6.3914 39.7303 5.79696 39.4841 5.35867 39.0458C4.92039 38.6075 4.67416 38.0131 4.67416 37.3932V28.0449H21.0337V37.3932ZM137.888 0C132.311 0.0061859 126.965 2.22422 123.021 6.16746C119.078 10.1107 116.86 15.4571 116.854 21.0337V51.4157C116.854 53.2752 117.593 55.0585 118.907 56.3734C120.222 57.6883 122.006 58.427 123.865 58.427V102.831C123.865 103.451 124.111 104.046 124.55 104.484C124.988 104.922 125.582 105.169 126.202 105.169H137.888C138.507 105.169 139.102 104.922 139.54 104.484C139.979 104.046 140.225 103.451 140.225 102.831V2.33708C140.225 1.71725 139.979 1.1228 139.54 0.684515C139.102 0.246228 138.507 0 137.888 0ZM135.551 100.494H128.539V56.0899C128.539 55.47 128.293 54.8756 127.855 54.4373C127.417 53.999 126.822 53.7528 126.202 53.7528H123.865C123.245 53.7528 122.651 53.5066 122.213 53.0683C121.774 52.63 121.528 52.0356 121.528 51.4157V21.0337C121.533 17.101 122.952 13.3012 125.527 10.3281C128.101 7.3551 131.659 5.4072 135.551 4.84009V100.494Z" fill="black"/>
<path d="M128.539 14.0225H123.865V49.0786H128.539V14.0225Z" fill="black"/>
<path d="M70.112 28.0449C65.4897 28.0449 60.9712 29.4156 57.1279 31.9836C53.2846 34.5516 50.2891 38.2016 48.5202 42.4721C46.7513 46.7425 46.2885 51.4416 47.1903 55.9751C48.0921 60.5086 50.3179 64.6729 53.5864 67.9413C56.8548 71.2098 61.0191 73.4357 65.5526 74.3374C70.0861 75.2392 74.7852 74.7764 79.0556 73.0075C83.3261 71.2386 86.9761 68.2431 89.5441 64.3998C92.1121 60.5565 93.4828 56.038 93.4828 51.4157C93.476 45.2195 91.0115 39.279 86.6301 34.8976C82.2487 30.5162 76.3082 28.0517 70.112 28.0449ZM70.112 70.1123C66.4142 70.1123 62.7994 69.0158 59.7247 66.9614C56.6501 64.907 54.2537 61.987 52.8386 58.5706C51.4235 55.1542 51.0532 51.395 51.7746 47.7682C52.496 44.1414 54.2767 40.81 56.8915 38.1952C59.5063 35.5804 62.8377 33.7997 66.4645 33.0783C70.0913 32.3569 73.8505 32.7272 77.2669 34.1423C80.6833 35.5574 83.6033 37.9538 85.6577 41.0284C87.7121 44.1031 88.8086 47.7179 88.8086 51.4157C88.8031 56.3727 86.8315 61.125 83.3264 64.6301C79.8213 68.1352 75.069 70.1068 70.112 70.1123Z" fill="black"/>
</svg>
