<svg width="104" height="104" viewBox="0 0 104 104" fill="none" xmlns="http://www.w3.org/2000/svg">
<path d="M88.8327 5.18827e-08C84.8438 -0.000329656 81.0153 1.57079 78.1766 4.37305C75.3378 7.17532 73.7173 10.9831 73.666 14.9717C73.666 29.9217 88.8327 36.8333 88.8327 36.8333C88.8327 36.8333 103.999 29.9217 103.999 14.9717C103.948 10.9831 102.328 7.17532 99.4888 4.37305C96.65 1.57079 92.8216 -0.000329656 88.8327 5.18827e-08ZM88.8327 21.4067C87.5787 21.3811 86.3601 20.9858 85.3298 20.2705C84.2995 19.5552 83.5033 18.5516 83.0411 17.3856C82.5788 16.2196 82.4711 14.9431 82.7313 13.7162C82.9916 12.4892 83.6083 11.3664 84.5041 10.4885C85.4 9.61056 86.535 9.01665 87.767 8.78122C88.999 8.54578 90.273 8.67929 91.4295 9.16501C92.5859 9.65073 93.5732 10.467 94.2675 11.5116C94.9619 12.5561 95.3324 13.7824 95.3327 15.0367C95.2987 16.7379 94.5988 18.358 93.3835 19.5491C92.1682 20.7401 90.5343 21.407 88.8327 21.4067Z" fill="black"/>
<path d="M0 104L4.57167 88.8334L0 73.6667L28.1667 88.8334L0 104Z" fill="black"/>
<path d="M85.584 91H34.6673C34.0927 91 33.5416 90.7717 33.1353 90.3654C32.7289 89.9591 32.5007 89.408 32.5007 88.8333C32.5007 88.2587 32.7289 87.7076 33.1353 87.3013C33.5416 86.8949 34.0927 86.6667 34.6673 86.6667H85.584C88.1699 86.6667 90.6498 85.6394 92.4783 83.811C94.3068 81.9825 95.334 79.5025 95.334 76.9167C95.334 74.3308 94.3068 71.8509 92.4783 70.0224C90.6498 68.1939 88.1699 67.1667 85.584 67.1667H18.4173C14.6822 67.1667 11.1 65.6829 8.4589 63.0418C5.81776 60.4006 4.33398 56.8185 4.33398 53.0833C4.33398 49.3482 5.81776 45.7661 8.4589 43.1249C11.1 40.4838 14.6822 39 18.4173 39H88.834C89.4086 39 89.9597 39.2283 90.3661 39.6346C90.7724 40.0409 91.0007 40.592 91.0007 41.1667C91.0007 41.7413 90.7724 42.2924 90.3661 42.6987C89.9597 43.1051 89.4086 43.3333 88.834 43.3333H18.4173C15.8315 43.3333 13.3515 44.3606 11.523 46.189C9.69455 48.0175 8.66732 50.4975 8.66732 53.0833C8.66732 55.6692 9.69455 58.1491 11.523 59.9776C13.3515 61.8061 15.8315 62.8333 18.4173 62.8333H85.584C89.3191 62.8333 92.9013 64.3171 95.5424 66.9582C98.1836 69.5994 99.6673 73.1815 99.6673 76.9167C99.6673 80.6518 98.1836 84.234 95.5424 86.8751C92.9013 89.5162 89.3191 91 85.584 91Z" fill="black"/>
</svg>
