<svg width="39" height="49" viewBox="0 0 39 49" fill="none" xmlns="http://www.w3.org/2000/svg">
<path d="M36.554 8.575C36.554 5.75186 33.5371 3.92147 27.3403 2.99562C25.5362 1.12455 22.6077 0 19.404 0C16.2004 0 13.2719 1.12455 11.4678 2.99562C5.27098 3.92147 2.25405 5.75186 2.25405 8.575C2.25405 11.1999 4.99903 12.534 7.27924 13.2364C7.22044 13.722 7.15405 14.2068 7.15405 14.7C7.15405 21.4542 12.6499 26.95 19.404 26.95C26.1582 26.95 31.654 21.4542 31.654 14.7C31.654 14.2071 31.5877 13.7225 31.5289 13.2369C33.8054 12.5357 36.554 11.2016 36.554 8.575ZM19.404 22.05C15.351 22.05 12.054 18.753 12.054 14.7C12.054 14.5444 12.0589 14.3913 12.0685 14.2382C12.1917 14.2548 12.3258 14.2607 12.4502 14.2764C13.21 14.3719 13.9861 14.4486 14.7792 14.5084C15.0271 14.527 15.2694 14.5459 15.5193 14.5608C16.4775 14.6189 17.4423 14.6603 18.4064 14.664C19.05 14.7262 19.9783 14.7142 20.1817 14.676C21.2136 14.6684 22.2191 14.625 23.2082 14.5653C23.474 14.5493 23.7317 14.5295 23.9931 14.5099C24.7896 14.4499 25.5636 14.3739 26.3153 14.2801C26.4525 14.2629 26.6044 14.2561 26.7396 14.2379C26.7491 14.3913 26.754 14.5444 26.754 14.7C26.754 18.753 23.4571 22.05 19.404 22.05ZM28.1596 9.03928C25.8951 9.49375 23.0492 9.75468 19.9257 9.78824C19.7593 9.8049 19.5787 9.8 19.404 9.8C19.233 9.8 19.05 9.80245 18.6624 9.77599C17.8978 9.77036 17.139 9.74586 16.3923 9.70788C14.3066 9.6018 12.3248 9.37468 10.6588 9.04075C9.9027 8.88517 9.28996 8.72788 8.7953 8.57745C9.77506 8.28076 11.1627 7.96495 13.0517 7.72338C13.7421 7.63469 14.3605 7.25665 14.7564 6.68482C15.351 5.82585 17.0582 4.9 19.404 4.9C21.7499 4.9 23.4571 5.82585 24.0517 6.68482C24.4476 7.25665 25.0662 7.63469 25.7564 7.72313C27.6454 7.9647 29.0343 8.28051 30.014 8.5772C29.5211 8.72567 28.911 8.8837 28.1596 9.03928ZM0.600788 48.1579C1.06604 48.6913 1.74077 49 2.45029 49H36.3578C37.0673 49 37.7418 48.6913 38.2073 48.1577C38.6726 47.6216 38.8833 46.9111 38.784 46.2077C37.4309 36.6255 29.0999 29.4 19.404 29.4C9.70817 29.4 1.37719 36.6255 0.0240579 46.208C-0.0751671 46.9114 0.135533 47.6219 0.600788 48.1579ZM19.404 34.3C25.6954 34.3 31.2199 38.3555 33.2488 44.1H5.55934C7.58819 38.3555 13.1127 34.3 19.404 34.3Z" fill="#18ABC6"/>
</svg>
