<svg width="46" height="48" viewBox="0 0 46 48" fill="none" xmlns="http://www.w3.org/2000/svg">
<path fill-rule="evenodd" clip-rule="evenodd" d="M35.4054 6.01443L29.8933 11.6953C24.2429 10.54 1.61562 4.97487 1.31971 5.35552C0.989243 5.78292 0.872608 6.07676 0.209512 6.93157C6.73679 12.027 13.3872 16.8976 19.9317 21.9619L11.6052 30.5433L0 31.289L10.2013 37.3862L15.9272 47.7039L16.6465 35.7834C19.3702 33.0009 22.1133 30.2361 24.8499 27.4669C29.8177 34.2786 34.5911 41.2039 39.5848 48C40.4143 47.3144 40.6994 47.1964 41.1141 46.8536C41.4877 46.5464 35.9151 22.5073 34.9151 17.1514C36.7921 15.1858 38.6518 13.2046 40.4877 11.1967C50.2678 0.51386 46.0776 -4.98672 35.4054 6.01443Z" fill="#18ABC6"/>
</svg>
