<svg width="54" height="57" viewBox="0 0 54 57" fill="none" xmlns="http://www.w3.org/2000/svg">
<rect width="49" height="49" rx="7" fill="#0891AA"/>
<rect x="5" y="5" width="49" height="49" rx="7" fill="white"/>
<path d="M34.228 24.026C33.7973 23.3167 33.202 22.772 32.442 22.392C31.7073 22.012 30.8333 21.822 29.82 21.822C27.9453 21.822 26.4633 22.43 25.374 23.646C24.31 24.862 23.778 26.496 23.778 28.548C23.778 30.8533 24.348 32.614 25.488 33.83C26.6533 35.0207 28.338 35.616 30.542 35.616C33.1513 35.616 35.0133 34.438 36.128 32.082H28.642V26.724H42.55V33.944C41.9673 35.3627 41.106 36.6927 39.966 37.934C38.8513 39.1753 37.4327 40.2013 35.71 41.012C33.9873 41.7973 32.024 42.19 29.82 42.19C27.1347 42.19 24.7533 41.62 22.676 40.48C20.624 39.3147 19.028 37.706 17.888 35.654C16.7733 33.5767 16.216 31.208 16.216 28.548C16.216 25.9133 16.7733 23.57 17.888 21.518C19.028 19.4407 20.624 17.832 22.676 16.692C24.728 15.5267 27.0967 14.944 29.782 14.944C33.1513 14.944 35.938 15.7547 38.142 17.376C40.346 18.9973 41.714 21.214 42.246 24.026H34.228Z" fill="#18ABC6"/>
</svg>
