<svg width="42" height="42" viewBox="0 0 42 42" fill="none" xmlns="http://www.w3.org/2000/svg">
<path d="M30.8043 25.221C30.3824 25.0112 27.6395 23.7528 27.2175 23.5431C26.7956 23.3333 26.3736 23.3333 25.9516 23.7528C25.5296 24.1723 24.6857 25.4307 24.2637 25.8502C24.0527 26.2697 23.6307 26.2697 23.2087 26.0599C21.7318 25.4307 20.2549 24.5918 18.989 23.5431C17.934 22.4944 16.8791 21.236 16.0351 19.9775C15.8241 19.5581 16.0351 19.1386 16.2461 18.9288C16.4571 18.7191 16.6681 18.2996 17.0901 18.0899C17.3011 17.8801 17.5121 17.4607 17.5121 17.2509C17.723 17.0412 17.723 16.6217 17.5121 16.412C17.3011 16.2022 16.2461 13.6854 15.8241 12.6367C15.6132 11.1685 15.1912 11.1685 14.7692 11.1685H13.7143C13.2923 11.1685 12.6593 11.588 12.4483 11.7978C11.1824 13.0562 10.5494 14.5243 10.5494 16.2022C10.7604 18.0899 11.3934 19.9775 12.6593 21.6554C14.9802 25.0112 17.934 27.7378 21.5208 29.4157C22.5758 29.8352 23.4197 30.2547 24.4747 30.4644C25.5296 30.8839 26.5846 30.8839 27.8505 30.6742C29.3274 30.4644 30.5934 29.4157 31.4373 28.1573C31.8593 27.3184 31.8593 26.4794 31.6483 25.6404L30.8043 25.221ZM36.0791 6.13483C27.8505 -2.04494 14.5582 -2.04494 6.32966 6.13483C-0.421977 12.8464 -1.68791 23.1236 2.95384 31.3034L0 42L11.1824 39.0637C14.3472 40.7416 17.723 41.5805 21.0989 41.5805C32.7032 41.5805 41.9867 32.3521 41.9867 20.8165C42.1977 15.3633 39.8769 10.1199 36.0791 6.13483ZM30.3824 35.4981C27.6395 37.176 24.4747 38.2247 21.0989 38.2247C17.934 38.2247 14.9802 37.3858 12.2373 35.9176L11.6044 35.4981L5.06373 37.176L6.75164 30.8839L6.32966 30.2547C1.26593 21.8652 3.79779 11.3783 12.0264 6.13483C20.2549 0.891386 30.8043 3.61798 35.8681 11.588C40.9318 19.7678 38.6109 30.4644 30.3824 35.4981Z" fill="white"/>
</svg>
